<?xml version="1.0" encoding="utf-8"?>
<!-- Generator: Adobe Illustrator 24.3.0, SVG Export Plug-In . SVG Version: 6.00 Build 0)  -->
<svg version="1.1" id="Layer_1" xmlns="http://www.w3.org/2000/svg" xmlns:xlink="http://www.w3.org/1999/xlink" x="0px" y="0px"
	 viewBox="0 0 200 200" enable-background="new 0 0 200 200" xml:space="preserve">
<path fill="#282828" d="M100.832,141.398c-1.4,0-2.8-0.6-3.8-1.6l-37.2-37.2c-0.8-0.8-0.8-2,0-2.8c0.8-0.8,2-0.8,2.8,0l37.2,37.2
	c0.5,0.5,1.4,0.5,2,0l37.2-37.2c0.8-0.8,2-0.8,2.8,0c0.8,0.8,0.8,2,0,2.8l-37.2,37.2
	C103.632,140.798,102.232,141.398,100.832,141.398z"/>
<path fill="#282828" d="M54.832,86.998c-1.1,0-2-0.9-2-2c0-14.9,12.1-27,27-27c8.7,0,17,4.3,22,11.4c0.6,0.9,0.4,2.2-0.5,2.8
	s-2.1,0.4-2.8-0.5c-4.2-6.1-11.3-9.7-18.7-9.7c-12.7,0-23,10.3-23,23C56.832,86.098,55.932,86.998,54.832,86.998z"/>
<path fill="#282828" d="M145.832,86.998c-1.1,0-2-0.9-2-2c0-12.7-10.3-23-23-23c-7.4,0-14.5,3.6-18.8,9.7c-0.6,0.9-1.9,1.1-2.8,0.5
	c-0.9-0.6-1.1-1.9-0.5-2.8c5.1-7.1,13.3-11.4,22.1-11.4c14.9,0,27,12.1,27,27C147.832,86.098,146.932,86.998,145.832,86.998z"/>
</svg>
